<?xml version="1.0" encoding="iso-8859-1"?>
<!-- Generator: Adobe Illustrator 24.0.2, SVG Export Plug-In . SVG Version: 6.00 Build 0)  -->
<svg fill="#e6e6e6" version="1.1" xmlns="http://www.w3.org/2000/svg" xmlns:xlink="http://www.w3.org/1999/xlink" x="0px" y="0px"
	 viewBox="0 0 64 64" style="enable-background:new 0 0 64 64;" xml:space="preserve">
<g id="&#x421;&#x43B;&#x43E;&#x439;_1">
	<path d="M32,6C17.641,6,6,17.641,6,32c0,14.359,11.641,26,26,26s26-11.641,26-26C58,17.641,46.359,6,32,6z M25,44h-5V26h5V44z
		 M22.485,24h-0.028C20.965,24,20,22.888,20,21.499C20,20.08,20.995,19,22.514,19c1.521,0,2.458,1.08,2.486,2.499
		C25,22.887,24.035,24,22.485,24z M44,44h-5v-9c0-3-1.446-4-3-4c-1.445,0-3,1-3,4v9h-5V26h5v3c0.343-0.981,1.984-3,5-3c4,0,6,3,6,8
		V44z"/>
</g>
<g id="&#x421;&#x43B;&#x43E;&#x439;_2">
</g>
</svg>
